<?xml version="1.0" encoding="utf-8"?>
<!-- Generator: Adobe Illustrator 27.1.1, SVG Export Plug-In . SVG Version: 6.00 Build 0)  -->
<svg version="1.1" id="Layer_1" xmlns="http://www.w3.org/2000/svg" xmlns:xlink="http://www.w3.org/1999/xlink" x="0px" y="0px"
	 viewBox="0 0 140 140" style="enable-background:new 0 0 140 140;" xml:space="preserve">
<style type="text/css">
	.st0{fill:#B62D39;}
	.st1{fill:#FFFFFF;}
	.st2{fill-rule:evenodd;clip-rule:evenodd;fill:#ED9042;}
	.st3{fill-rule:evenodd;clip-rule:evenodd;fill:#B62D39;}
</style>
<g>
	<circle class="st0" cx="70" cy="70" r="70"/>
	<circle class="st1" cx="70" cy="70" r="30.02"/>
	<g>
		<path class="st1" d="M76.23,18.97c-1-0.11-1.84-0.42-2.53-0.93c-0.68-0.51-1.18-1.16-1.5-1.97c-0.31-0.81-0.4-1.73-0.28-2.76
			c0.12-1.01,0.42-1.88,0.91-2.59c0.48-0.71,1.12-1.24,1.9-1.58c0.78-0.34,1.68-0.45,2.7-0.34c1.14,0.13,2.07,0.52,2.8,1.17
			c0.73,0.64,1.16,1.51,1.29,2.59l-2.25,0.25c-0.06-0.67-0.28-1.2-0.64-1.57c-0.36-0.37-0.83-0.59-1.42-0.66
			c-0.56-0.06-1.06,0.02-1.48,0.25c-0.42,0.23-0.77,0.58-1.04,1.05c-0.26,0.47-0.43,1.04-0.51,1.71c-0.08,0.67-0.04,1.27,0.11,1.79
			c0.15,0.52,0.4,0.94,0.76,1.25c0.36,0.31,0.81,0.5,1.35,0.56c0.59,0.07,1.1-0.04,1.54-0.32c0.44-0.28,0.76-0.71,0.98-1.29
			l2.18,0.7c-0.39,1-1.02,1.73-1.88,2.19C78.36,18.93,77.36,19.1,76.23,18.97z"/>
		<path class="st1" d="M87.09,21.25c-0.72-0.24-1.3-0.61-1.75-1.11c-0.44-0.5-0.72-1.07-0.83-1.72c-0.12-0.66-0.05-1.35,0.21-2.07
			c0.26-0.73,0.63-1.31,1.14-1.76c0.5-0.45,1.08-0.74,1.74-0.86c0.66-0.13,1.35-0.07,2.07,0.17c0.73,0.24,1.31,0.61,1.75,1.11
			c0.44,0.49,0.73,1.07,0.84,1.73c0.12,0.65,0.05,1.34-0.21,2.07c-0.26,0.73-0.64,1.32-1.14,1.77c-0.5,0.45-1.09,0.73-1.75,0.86
			C88.5,21.56,87.81,21.5,87.09,21.25z M87.59,19.83c0.49,0.17,0.95,0.09,1.37-0.21c0.43-0.31,0.77-0.81,1.01-1.5
			c0.24-0.7,0.29-1.29,0.15-1.79c-0.14-0.5-0.46-0.83-0.96-1c-0.49-0.16-0.95-0.09-1.38,0.21c-0.42,0.31-0.76,0.81-1,1.51
			c-0.24,0.7-0.3,1.29-0.15,1.79C86.78,19.34,87.1,19.67,87.59,19.83z"/>
		<path class="st1" d="M93.87,23.61l3.82-6.4l1.75,1l-0.88,1.48l0.12-0.29c0.45-0.31,0.93-0.48,1.44-0.52
			c0.51-0.04,1.02,0.09,1.53,0.38c0.51,0.29,0.86,0.64,1.05,1.05c0.19,0.41,0.25,0.86,0.17,1.35c-0.08,0.49-0.28,0.99-0.59,1.52
			l-2.32,3.9l-1.81-1.03l2.26-3.79c0.27-0.45,0.4-0.85,0.4-1.19c0-0.34-0.19-0.62-0.57-0.84c-0.45-0.26-0.91-0.27-1.39-0.04
			c-0.47,0.23-0.94,0.74-1.4,1.51l-1.75,2.93L93.87,23.61z"/>
		<path class="st1" d="M104.15,30.22c-0.43-0.35-0.68-0.72-0.75-1.11c-0.06-0.39,0.08-0.79,0.4-1.18l2.83-3.37l-0.83-0.67l0.97-1.16
			l0.83,0.67l0.94-1.12l1.94,0.92l-1.26,1.51l1.08,0.87l-0.97,1.16l-1.08-0.87l-2.62,3.12c-0.1,0.12-0.15,0.21-0.15,0.28
			c0,0.07,0.06,0.15,0.17,0.24l0.9,0.72l-0.97,1.16L104.15,30.22z"/>
		<path class="st1" d="M109.01,34.85c-0.32-0.35-0.55-0.73-0.7-1.14c-0.14-0.41-0.17-0.81-0.08-1.22c0.09-0.4,0.32-0.76,0.7-1.09
			c0.41-0.35,0.85-0.54,1.35-0.56c0.49-0.02,1.01,0.13,1.55,0.44c0.55,0.31,1.1,0.77,1.67,1.39l0.71,0.78l-0.23,0.03l0.33-0.28
			c0.37-0.33,0.59-0.63,0.65-0.93c0.06-0.29-0.04-0.6-0.32-0.9c-0.27-0.29-0.55-0.45-0.86-0.47c-0.3-0.02-0.61,0.09-0.93,0.31
			l-1.15-1.8c0.37-0.22,0.77-0.33,1.21-0.34c0.44-0.01,0.91,0.1,1.39,0.33c0.48,0.23,0.97,0.62,1.45,1.15
			c0.44,0.49,0.74,0.97,0.89,1.45c0.15,0.48,0.13,0.96-0.07,1.44c-0.19,0.49-0.59,0.99-1.19,1.51l-1.92,1.67
			c-0.12,0.1-0.18,0.19-0.19,0.25c-0.01,0.07,0.04,0.15,0.13,0.26l0.23,0.25l-1.14,0.99l-0.66-0.73c-0.36-0.4-0.54-0.79-0.53-1.18
			c0.02-0.38,0.22-0.74,0.61-1.08l0.27-0.23l0.14,0.36c-0.19,0.09-0.41,0.16-0.66,0.23c-0.25,0.06-0.52,0.09-0.81,0.07
			c-0.29-0.02-0.58-0.1-0.89-0.25S109.31,35.18,109.01,34.85z M110.48,34.36c0.22,0.24,0.47,0.4,0.75,0.49
			c0.28,0.09,0.58,0.09,0.9,0c0.32-0.09,0.65-0.28,0.99-0.58l0.12-0.11l-0.59-0.65c-0.33-0.37-0.64-0.61-0.93-0.73
			c-0.28-0.12-0.53-0.15-0.75-0.11c-0.21,0.04-0.39,0.12-0.52,0.23c-0.1,0.09-0.19,0.21-0.26,0.35c-0.06,0.15-0.08,0.31-0.05,0.5
			C110.17,33.95,110.28,34.14,110.48,34.36z"/>
		<path class="st1" d="M115.79,43.57c-0.41-0.67-0.63-1.33-0.65-1.98c-0.02-0.65,0.14-1.25,0.49-1.82c0.35-0.56,0.87-1.05,1.57-1.46
			c0.7-0.41,1.38-0.63,2.05-0.67c0.67-0.04,1.29,0.11,1.86,0.43c0.58,0.32,1.07,0.82,1.48,1.49c0.29,0.48,0.48,0.98,0.56,1.49
			c0.08,0.52,0.03,1.02-0.14,1.51c-0.17,0.49-0.47,0.94-0.92,1.35l-1.38-1.45c0.41-0.36,0.66-0.72,0.74-1.08
			c0.09-0.36,0.03-0.72-0.18-1.06c-0.29-0.47-0.7-0.71-1.23-0.72c-0.52,0-1.1,0.18-1.74,0.56c-0.63,0.37-1.06,0.78-1.3,1.23
			c-0.23,0.45-0.2,0.91,0.1,1.39c0.21,0.33,0.48,0.55,0.82,0.66c0.35,0.11,0.77,0.09,1.26-0.05l0.68,1.79
			c-0.44,0.15-0.86,0.22-1.27,0.2c-0.4-0.02-0.78-0.12-1.13-0.28c-0.34-0.16-0.66-0.37-0.94-0.63C116.24,44.2,116,43.9,115.79,43.57
			z"/>
		<path class="st1" d="M119.78,50.92c-0.21-0.51-0.25-0.95-0.11-1.33c0.14-0.37,0.45-0.65,0.93-0.84l4.13-1.63l-0.4-0.98l1.42-0.56
			l0.4,0.98l1.38-0.54l1.25,1.71l-1.85,0.73l0.53,1.27l-1.42,0.56l-0.53-1.27l-3.82,1.51c-0.14,0.06-0.23,0.11-0.27,0.17
			c-0.03,0.06-0.02,0.16,0.04,0.29l0.43,1.05l-1.42,0.56L119.78,50.92z"/>
		<path class="st1" d="M122.95,62.86c-0.07-0.57,0.01-1.05,0.23-1.45c0.22-0.39,0.56-0.71,1-0.94c0.45-0.23,0.98-0.38,1.59-0.45
			l4.58-0.53l0.24,2.03l-4.34,0.5c-0.61,0.07-1.05,0.22-1.32,0.46c-0.27,0.24-0.38,0.57-0.32,1c0.03,0.25,0.13,0.49,0.29,0.7
			c0.17,0.22,0.42,0.38,0.76,0.49c0.34,0.11,0.78,0.13,1.34,0.07l3.94-0.45l0.24,2.03l-7.52,0.87l-0.24-1.96l1.76-0.2l-0.3,0.08
			c-0.54-0.16-0.98-0.43-1.32-0.81C123.23,63.92,123.02,63.44,122.95,62.86z"/>
		<path class="st1" d="M123.41,73.56c0.04-0.56,0.16-1.08,0.36-1.56c0.2-0.48,0.49-0.88,0.86-1.19c0.37-0.31,0.84-0.5,1.41-0.55
			l0.25,1.89c-0.43,0.01-0.76,0.14-1,0.37c-0.23,0.24-0.37,0.6-0.4,1.07c-0.03,0.45,0.04,0.79,0.2,1.02
			c0.17,0.23,0.38,0.36,0.63,0.37c0.22,0.01,0.41-0.06,0.59-0.22c0.17-0.16,0.3-0.45,0.4-0.86l0.16-0.66
			c0.06-0.26,0.14-0.54,0.23-0.84c0.1-0.29,0.22-0.57,0.39-0.82c0.17-0.25,0.39-0.46,0.66-0.61c0.27-0.15,0.62-0.21,1.03-0.19
			c0.5,0.03,0.92,0.19,1.25,0.48c0.34,0.29,0.59,0.67,0.74,1.15c0.16,0.48,0.22,1.02,0.17,1.61c-0.04,0.55-0.16,1.05-0.36,1.5
			c-0.2,0.45-0.47,0.81-0.81,1.09c-0.34,0.29-0.75,0.46-1.22,0.52l-0.26-1.89c0.19-0.02,0.38-0.07,0.55-0.15
			c0.17-0.08,0.32-0.2,0.43-0.38c0.12-0.18,0.19-0.42,0.21-0.73c0.02-0.35-0.03-0.64-0.15-0.86c-0.13-0.21-0.31-0.33-0.55-0.35
			c-0.18-0.01-0.33,0.04-0.45,0.14c-0.12,0.11-0.22,0.26-0.31,0.46c-0.08,0.2-0.15,0.43-0.22,0.68l-0.19,0.76
			c-0.09,0.39-0.23,0.75-0.42,1.09c-0.18,0.35-0.43,0.62-0.75,0.82c-0.31,0.2-0.71,0.29-1.2,0.26c-0.54-0.04-0.98-0.21-1.33-0.52
			c-0.35-0.31-0.6-0.72-0.76-1.23C123.42,74.75,123.37,74.19,123.41,73.56z"/>
		<path class="st1" d="M126.14,87.7l1.29-0.87l0.81,1.59l0.87-1.49l1.23,0.93l-1.32,1.25l1.77,0.35l-0.52,1.44l-1.6-0.82l0.22,1.79
			l-1.55-0.04l0.29-1.69l-1.65,0.73l-0.44-1.47l1.99-0.27L126.14,87.7z"/>
		<path class="st1" d="M113.33,101.04c0.6-0.79,1.3-1.35,2.09-1.68c0.79-0.33,1.62-0.42,2.49-0.28c0.87,0.15,1.74,0.53,2.58,1.14
			c0.84,0.61,1.45,1.3,1.84,2.07c0.39,0.77,0.54,1.57,0.45,2.4c-0.09,0.83-0.44,1.65-1.05,2.45c-0.68,0.9-1.49,1.5-2.43,1.79
			c-0.94,0.3-1.92,0.23-2.94-0.2l0.9-2.03c0.63,0.29,1.2,0.37,1.71,0.24c0.51-0.12,0.94-0.41,1.29-0.87
			c0.34-0.44,0.51-0.9,0.52-1.38c0.01-0.47-0.13-0.94-0.41-1.4c-0.28-0.46-0.7-0.89-1.26-1.29c-0.56-0.4-1.1-0.67-1.64-0.81
			c-0.53-0.13-1.03-0.13-1.49,0.02c-0.46,0.15-0.85,0.44-1.17,0.87c-0.35,0.46-0.51,0.95-0.48,1.46c0.03,0.51,0.25,1,0.65,1.48
			l-1.71,1.5c-0.69-0.83-1.02-1.72-1-2.69C112.3,102.86,112.65,101.94,113.33,101.04z"/>
		<path class="st1" d="M105.87,109.11c0.57-0.49,1.19-0.8,1.85-0.93c0.66-0.13,1.31-0.07,1.94,0.15c0.64,0.23,1.22,0.63,1.73,1.21
			c0.52,0.58,0.85,1.19,0.99,1.84c0.15,0.65,0.11,1.29-0.11,1.9c-0.22,0.62-0.62,1.18-1.19,1.67c-0.58,0.49-1.2,0.8-1.85,0.93
			c-0.66,0.13-1.31,0.08-1.95-0.15c-0.64-0.23-1.21-0.63-1.73-1.21c-0.52-0.58-0.85-1.19-1-1.85c-0.14-0.65-0.11-1.28,0.11-1.91
			C104.9,110.15,105.3,109.6,105.87,109.11z M106.88,110.25c-0.39,0.33-0.56,0.76-0.5,1.27c0.06,0.52,0.34,1.06,0.83,1.61
			c0.5,0.56,1,0.9,1.52,1.02c0.51,0.13,0.96,0.02,1.36-0.31c0.39-0.33,0.56-0.76,0.5-1.28c-0.06-0.51-0.34-1.05-0.83-1.6
			c-0.49-0.55-1-0.9-1.51-1.02C107.73,109.8,107.27,109.91,106.88,110.25z"/>
		<path class="st1" d="M100.41,113.69l3.78,6.42l-1.75,0.99l-0.87-1.48l0.2,0.24c0.05,0.54-0.04,1.03-0.26,1.47
			c-0.22,0.45-0.59,0.82-1.1,1.11c-0.51,0.29-0.99,0.41-1.45,0.37c-0.46-0.04-0.89-0.22-1.28-0.53c-0.39-0.31-0.74-0.73-1.05-1.25
			l-2.3-3.91l1.81-1.02l2.24,3.8c0.27,0.46,0.55,0.77,0.85,0.93c0.3,0.17,0.65,0.14,1.03-0.07c0.45-0.25,0.69-0.64,0.73-1.16
			c0.03-0.52-0.18-1.17-0.64-1.94l-1.73-2.94L100.41,113.69z"/>
		<path class="st1" d="M89.43,119.13c0.52-0.19,0.98-0.22,1.36-0.08c0.38,0.15,0.66,0.46,0.84,0.93l1.58,4.08l1.01-0.37l0.54,1.4
			l-1.01,0.37l0.53,1.36L92.49,128l-0.71-1.82l-1.31,0.49l-0.54-1.4l1.31-0.49L89.78,121c-0.05-0.14-0.11-0.23-0.17-0.27
			c-0.06-0.03-0.16-0.02-0.3,0.03l-1.08,0.4l-0.54-1.4L89.43,119.13z"/>
		<path class="st1" d="M82.88,120.94c0.47-0.1,0.92-0.1,1.36-0.02c0.43,0.09,0.81,0.26,1.12,0.54c0.31,0.28,0.51,0.65,0.61,1.14
			c0.11,0.52,0.05,0.99-0.18,1.42c-0.23,0.42-0.62,0.79-1.17,1.1c-0.55,0.31-1.23,0.55-2.06,0.72l-1.04,0.21l0.09-0.21l0.09,0.42
			c0.1,0.48,0.27,0.82,0.49,1.01c0.23,0.2,0.55,0.26,0.96,0.18c0.39-0.08,0.67-0.24,0.84-0.49c0.16-0.24,0.23-0.56,0.2-0.94
			l2.16-0.07c0.01,0.42-0.09,0.82-0.3,1.2c-0.21,0.38-0.54,0.72-0.99,1.01c-0.45,0.29-1.03,0.51-1.75,0.65
			c-0.66,0.13-1.23,0.14-1.73,0.03c-0.5-0.11-0.91-0.37-1.24-0.78c-0.33-0.41-0.58-1-0.74-1.76l-0.52-2.47
			c-0.03-0.15-0.07-0.25-0.13-0.29c-0.06-0.04-0.16-0.05-0.3-0.02l-0.34,0.07L78,122.1l0.98-0.2c0.54-0.11,0.97-0.06,1.31,0.14
			c0.33,0.21,0.55,0.56,0.65,1.05l0.07,0.34l-0.39-0.06c0.02-0.2,0.06-0.43,0.13-0.67c0.07-0.24,0.18-0.48,0.35-0.72
			c0.16-0.23,0.38-0.44,0.67-0.63C82.05,121.17,82.42,121.03,82.88,120.94z M82.57,122.43c-0.32,0.06-0.59,0.19-0.81,0.39
			c-0.22,0.19-0.37,0.45-0.45,0.76c-0.08,0.32-0.08,0.69,0.01,1.13l0.03,0.15l0.87-0.17c0.49-0.1,0.86-0.24,1.11-0.42
			c0.24-0.18,0.4-0.37,0.47-0.58c0.07-0.2,0.09-0.39,0.05-0.56c-0.03-0.13-0.09-0.27-0.18-0.4c-0.1-0.13-0.24-0.23-0.41-0.3
			C83.09,122.38,82.86,122.37,82.57,122.43z"/>
		<path class="st1" d="M71.77,122.32c0.8-0.01,1.49,0.13,2.08,0.44c0.59,0.31,1.04,0.75,1.36,1.32c0.32,0.58,0.49,1.26,0.51,2.06
			c0.01,0.8-0.13,1.49-0.43,2.07c-0.3,0.59-0.74,1.04-1.32,1.36c-0.57,0.33-1.26,0.49-2.05,0.51c-0.57,0.01-1.1-0.08-1.6-0.27
			c-0.49-0.19-0.92-0.49-1.26-0.88c-0.35-0.39-0.6-0.87-0.73-1.46l1.97-0.45c0.11,0.53,0.31,0.92,0.58,1.17
			c0.28,0.26,0.62,0.39,1.03,0.38c0.57-0.01,0.98-0.24,1.25-0.68c0.26-0.44,0.39-1.03,0.38-1.75c-0.01-0.72-0.16-1.29-0.44-1.72
			c-0.28-0.42-0.71-0.63-1.28-0.62c-0.4,0.01-0.73,0.13-1,0.37c-0.27,0.24-0.47,0.61-0.58,1.09l-1.92-0.32
			c0.09-0.45,0.24-0.84,0.46-1.17c0.22-0.33,0.49-0.6,0.81-0.82c0.31-0.21,0.66-0.37,1.03-0.48
			C70.99,122.38,71.37,122.33,71.77,122.32z"/>
		<path class="st1" d="M63.21,122.02c0.56,0.08,0.97,0.27,1.23,0.57c0.26,0.31,0.35,0.71,0.28,1.21l-0.62,4.32l1.07,0.15l-0.21,1.48
			l-1.07-0.15l-0.21,1.44l-2.14,0.21l0.28-1.93l-1.39-0.19l0.21-1.48l1.39,0.19l0.57-4c0.02-0.15,0.02-0.25-0.02-0.31
			c-0.04-0.06-0.13-0.09-0.27-0.11l-1.15-0.16l0.21-1.48L63.21,122.02z"/>
		<path class="st1" d="M51.06,118.74c0.54,0.23,0.93,0.53,1.17,0.92c0.24,0.38,0.35,0.82,0.33,1.32c-0.02,0.49-0.15,1.02-0.39,1.57
			l-1.82,4.15l-1.92-0.81l1.73-3.93c0.24-0.55,0.33-1,0.25-1.35c-0.08-0.35-0.32-0.6-0.73-0.78c-0.24-0.1-0.5-0.14-0.76-0.1
			c-0.27,0.03-0.54,0.17-0.81,0.4c-0.26,0.23-0.51,0.6-0.73,1.1l-1.57,3.56l-1.92-0.81l2.99-6.81l1.86,0.78l-0.7,1.6l0.08-0.3
			c0.41-0.38,0.87-0.61,1.38-0.71C49.98,118.45,50.51,118.51,51.06,118.74z"/>
		<path class="st1" d="M41.44,113.83c0.47,0.31,0.87,0.67,1.2,1.08c0.33,0.41,0.53,0.86,0.62,1.33c0.09,0.47,0.02,0.96-0.22,1.47
			l-1.79-0.73c0.2-0.37,0.26-0.71,0.17-1.03c-0.1-0.32-0.35-0.61-0.75-0.87c-0.38-0.25-0.72-0.37-1.01-0.34
			c-0.29,0.03-0.51,0.14-0.64,0.35c-0.12,0.18-0.15,0.38-0.1,0.61c0.05,0.22,0.24,0.48,0.56,0.77l0.51,0.47
			c0.2,0.18,0.41,0.39,0.63,0.61c0.21,0.23,0.39,0.47,0.53,0.74c0.14,0.27,0.21,0.56,0.21,0.87c0,0.31-0.12,0.63-0.35,0.96
			c-0.28,0.41-0.63,0.68-1.05,0.82c-0.43,0.14-0.89,0.16-1.39,0.05c-0.5-0.11-1.01-0.33-1.52-0.66c-0.47-0.31-0.85-0.66-1.15-1.05
			c-0.3-0.39-0.48-0.8-0.56-1.23c-0.09-0.43-0.04-0.87,0.15-1.3l1.8,0.72c-0.08,0.17-0.13,0.35-0.14,0.54
			c-0.02,0.19,0.02,0.37,0.12,0.56c0.1,0.19,0.27,0.37,0.54,0.54c0.3,0.2,0.58,0.3,0.83,0.3c0.25,0,0.45-0.1,0.58-0.29
			c0.1-0.14,0.13-0.29,0.1-0.45c-0.04-0.16-0.12-0.32-0.25-0.49c-0.14-0.17-0.3-0.34-0.49-0.52L38,117.1
			c-0.3-0.27-0.55-0.57-0.76-0.9c-0.21-0.33-0.33-0.68-0.36-1.05c-0.02-0.37,0.1-0.75,0.37-1.14c0.3-0.44,0.68-0.72,1.13-0.86
			c0.45-0.14,0.94-0.15,1.47-0.03C40.38,113.24,40.9,113.48,41.44,113.83z"/>
		<path class="st1" d="M27.55,109.07l0.13,1.53l-1.81-0.11l0.89,1.48l-1.44,0.58l-0.44-1.74l-1.19,1.33l-1.01-1.16l1.52-0.95
			l-1.7-0.7l0.81-1.3l1.36,1.09l0.17-1.76l1.52,0.36l-0.76,1.82L27.55,109.07z"/>
		<path class="st1" d="M22.1,91.55c0.4,0.9,0.55,1.77,0.45,2.61c-0.1,0.83-0.44,1.58-0.99,2.26c-0.56,0.67-1.33,1.21-2.3,1.62
			c-0.96,0.41-1.87,0.58-2.75,0.53c-0.87-0.05-1.66-0.32-2.35-0.82c-0.69-0.49-1.24-1.2-1.65-2.11c-0.46-1.03-0.58-2.01-0.37-2.95
			c0.2-0.94,0.75-1.74,1.65-2.39l1.35,1.78c-0.57,0.39-0.92,0.83-1.07,1.33c-0.15,0.49-0.11,1,0.13,1.53
			c0.23,0.51,0.55,0.89,0.96,1.13c0.41,0.24,0.9,0.36,1.45,0.35c0.55-0.01,1.14-0.15,1.77-0.42c0.63-0.27,1.15-0.6,1.53-0.99
			c0.38-0.39,0.63-0.81,0.73-1.27c0.1-0.46,0.04-0.94-0.18-1.43c-0.23-0.53-0.59-0.91-1.06-1.14c-0.47-0.23-1.01-0.29-1.63-0.18
			l-0.48-2.2c1.08-0.17,2.04-0.01,2.88,0.49C20.99,89.77,21.64,90.53,22.1,91.55z"/>
		<path class="st1" d="M18.67,81.19c0.15,0.73,0.11,1.41-0.11,2.03c-0.22,0.62-0.59,1.14-1.11,1.57c-0.52,0.43-1.17,0.71-1.94,0.86
			c-0.77,0.15-1.48,0.12-2.13-0.08c-0.65-0.2-1.19-0.55-1.63-1.04c-0.44-0.5-0.74-1.11-0.88-1.84c-0.15-0.74-0.11-1.41,0.11-2.03
			c0.21-0.62,0.58-1.15,1.11-1.58c0.52-0.43,1.17-0.71,1.94-0.86c0.77-0.15,1.48-0.12,2.13,0.08c0.65,0.2,1.19,0.55,1.63,1.05
			C18.23,79.85,18.52,80.46,18.67,81.19z M17.16,81.48c-0.1-0.5-0.39-0.85-0.88-1.06c-0.49-0.21-1.1-0.24-1.84-0.1
			c-0.74,0.14-1.29,0.4-1.66,0.77c-0.37,0.37-0.5,0.81-0.4,1.31c0.1,0.5,0.39,0.85,0.88,1.06c0.48,0.21,1.1,0.24,1.83,0.1
			c0.74-0.14,1.29-0.4,1.66-0.77C17.13,82.42,17.26,81.98,17.16,81.48z"/>
		<path class="st1" d="M17.36,74.25l-7.58-0.01l0-1.98l1.75,0l-0.32,0.05c-0.5-0.23-0.89-0.54-1.18-0.96
			c-0.29-0.41-0.43-0.91-0.43-1.49c0-0.58,0.14-1.05,0.4-1.41c0.27-0.37,0.64-0.64,1.11-0.82c0.47-0.18,1.02-0.27,1.64-0.26
			l4.62,0.01l0,2.05l-4.48-0.01c-0.54,0-0.95,0.09-1.25,0.26c-0.3,0.17-0.45,0.48-0.45,0.91c0,0.51,0.22,0.91,0.66,1.2
			c0.44,0.28,1.12,0.43,2.04,0.43l3.47,0.01L17.36,74.25z"/>
		<path class="st1" d="M18.04,62.19c-0.09,0.54-0.29,0.94-0.61,1.19c-0.32,0.25-0.73,0.33-1.24,0.25l-4.4-0.7l-0.17,1.04l-1.51-0.24
			l0.17-1.04l-1.47-0.23l-0.16-2.1l1.97,0.31l0.22-1.35l1.51,0.24l-0.22,1.35l4.07,0.65c0.15,0.02,0.26,0.02,0.32-0.01
			c0.06-0.04,0.1-0.13,0.12-0.27l0.19-1.12l1.51,0.24L18.04,62.19z"/>
		<path class="st1" d="M19.69,55.76c-0.15,0.45-0.37,0.83-0.66,1.16c-0.29,0.32-0.64,0.55-1.03,0.68c-0.4,0.12-0.83,0.11-1.31-0.05
			c-0.52-0.17-0.9-0.45-1.16-0.86c-0.26-0.41-0.39-0.92-0.39-1.54c0-0.62,0.13-1.32,0.39-2.11l0.33-0.99L16,52.23l-0.41-0.13
			c-0.48-0.15-0.86-0.18-1.14-0.09c-0.29,0.09-0.5,0.34-0.64,0.73c-0.13,0.37-0.12,0.69,0.02,0.96c0.13,0.26,0.38,0.47,0.74,0.64
			l-1.02,1.87c-0.37-0.2-0.68-0.49-0.91-0.85c-0.23-0.37-0.37-0.82-0.4-1.34c-0.03-0.53,0.06-1.13,0.29-1.81
			c0.21-0.62,0.49-1.11,0.84-1.48c0.35-0.37,0.78-0.59,1.31-0.66c0.53-0.08,1.17,0,1.93,0.25l2.44,0.79
			c0.15,0.05,0.26,0.06,0.32,0.04c0.06-0.03,0.12-0.11,0.16-0.24l0.11-0.32l1.45,0.47l-0.31,0.93C20.61,52.48,20.35,52.82,20,53
			c-0.35,0.18-0.77,0.18-1.26,0.03l-0.34-0.11l0.25-0.3c0.17,0.12,0.35,0.27,0.53,0.45c0.18,0.18,0.34,0.4,0.47,0.66
			c0.13,0.25,0.2,0.55,0.23,0.88C19.9,54.95,19.84,55.33,19.69,55.76z M18.52,54.76c0.1-0.3,0.12-0.6,0.06-0.88
			c-0.06-0.28-0.21-0.53-0.45-0.76c-0.24-0.23-0.58-0.41-1-0.55l-0.15-0.05l-0.28,0.82c-0.16,0.46-0.22,0.85-0.18,1.15
			c0.04,0.3,0.13,0.53,0.28,0.69c0.14,0.16,0.3,0.27,0.47,0.32c0.13,0.04,0.28,0.06,0.44,0.04c0.16-0.02,0.32-0.09,0.47-0.2
			C18.32,55.22,18.43,55.03,18.52,54.76z"/>
		<path class="st1" d="M24.02,45.65c-0.39,0.68-0.86,1.19-1.43,1.54c-0.56,0.34-1.18,0.51-1.85,0.49c-0.67-0.01-1.36-0.22-2.08-0.6
			c-0.71-0.39-1.25-0.85-1.62-1.4c-0.37-0.55-0.55-1.15-0.55-1.8c0-0.65,0.19-1.31,0.58-1.99c0.28-0.49,0.62-0.89,1.04-1.22
			c0.42-0.32,0.89-0.53,1.41-0.63c0.52-0.11,1.07-0.07,1.66,0.11l-0.59,1.89c-0.52-0.17-0.96-0.2-1.33-0.09
			c-0.37,0.1-0.65,0.33-0.85,0.68c-0.27,0.48-0.28,0.95-0.02,1.4c0.26,0.45,0.71,0.84,1.36,1.19c0.64,0.35,1.22,0.51,1.74,0.49
			c0.51-0.03,0.91-0.28,1.19-0.78c0.19-0.34,0.25-0.68,0.17-1.03c-0.08-0.35-0.3-0.7-0.68-1.04l1.24-1.47
			c0.36,0.3,0.62,0.62,0.81,0.98c0.18,0.35,0.28,0.72,0.32,1.1c0.03,0.37,0,0.74-0.09,1.11C24.36,44.95,24.22,45.31,24.02,45.65z"/>
		<path class="st1" d="M28.53,38.61c-0.35,0.43-0.72,0.68-1.12,0.76c-0.4,0.06-0.81-0.06-1.21-0.37l-3.51-2.68l-0.67,0.83
			l-1.21-0.92l0.67-0.83l-1.17-0.9l0.89-1.92l1.57,1.2l0.86-1.08l1.21,0.92l-0.86,1.08l3.25,2.48c0.12,0.09,0.22,0.14,0.29,0.14
			c0.07-0.01,0.15-0.06,0.24-0.18l0.71-0.89l1.21,0.92L28.53,38.61z"/>
		<path class="st1" d="M37.52,29.92c-0.47,0.34-0.93,0.52-1.4,0.53c-0.46,0.01-0.9-0.11-1.33-0.38c-0.43-0.26-0.83-0.64-1.2-1.12
			l-2.77-3.61l1.67-1.23l2.62,3.42c0.37,0.48,0.73,0.77,1.07,0.89c0.35,0.11,0.7,0.03,1.05-0.23c0.21-0.15,0.37-0.35,0.47-0.6
			c0.11-0.25,0.12-0.54,0.05-0.89c-0.07-0.34-0.28-0.73-0.61-1.16l-2.38-3.1l1.67-1.23L41,27.16l-1.62,1.19l-1.06-1.39l0.22,0.21
			c0.13,0.53,0.11,1.04-0.05,1.52C38.32,29.16,38,29.57,37.52,29.92z"/>
		<path class="st1" d="M46.66,24.21c-0.51,0.25-1.03,0.41-1.56,0.48c-0.53,0.07-1.02,0.03-1.49-0.13c-0.47-0.16-0.86-0.46-1.2-0.92
			l1.54-1.16c0.23,0.36,0.5,0.57,0.83,0.66c0.33,0.08,0.71,0.01,1.14-0.2c0.42-0.2,0.68-0.43,0.8-0.69c0.12-0.26,0.12-0.5,0.01-0.72
			c-0.1-0.19-0.26-0.32-0.49-0.38c-0.23-0.06-0.55-0.03-0.96,0.1l-0.67,0.2c-0.26,0.08-0.55,0.16-0.85,0.23
			c-0.31,0.07-0.61,0.09-0.92,0.08c-0.31-0.01-0.6-0.1-0.87-0.25c-0.27-0.16-0.5-0.41-0.68-0.77c-0.22-0.44-0.29-0.87-0.21-1.3
			c0.08-0.43,0.3-0.84,0.64-1.21c0.34-0.37,0.79-0.69,1.34-0.96c0.51-0.24,1.01-0.39,1.5-0.45c0.49-0.06,0.95-0.01,1.37,0.13
			c0.43,0.14,0.78,0.4,1.08,0.77l-1.54,1.17c-0.11-0.15-0.25-0.28-0.41-0.39c-0.15-0.11-0.34-0.17-0.55-0.18
			c-0.22-0.01-0.47,0.05-0.75,0.19c-0.32,0.16-0.55,0.34-0.68,0.56c-0.13,0.21-0.14,0.43-0.03,0.64c0.08,0.16,0.19,0.26,0.35,0.31
			c0.16,0.05,0.35,0.06,0.56,0.03c0.22-0.03,0.45-0.09,0.71-0.16l0.76-0.22c0.39-0.12,0.78-0.18,1.18-0.19
			c0.4-0.02,0.77,0.05,1.1,0.22c0.34,0.16,0.61,0.46,0.83,0.89c0.24,0.47,0.31,0.93,0.2,1.39c-0.1,0.45-0.33,0.87-0.7,1.26
			C47.71,23.61,47.24,23.94,46.66,24.21z"/>
		<path class="st1" d="M57.83,14.81l-1.42-0.66l1-1.48l-1.75,0.01l0.21-1.51l1.76,0.5l-0.58-1.68l1.53-0.28l0.08,1.77l1.47-1.08
			l0.74,1.34l-1.64,0.61l1.47,1.03l-1.08,1.11l-1.23-1.55L57.83,14.81z"/>
	</g>
	<g>
		<polygon class="st2" points="76.26,84.45 64.68,84.45 64.68,68.45 76.26,68.45 		"/>
		<path class="st2" d="M70.79,67.18c-0.96-0.13-4.83-0.59-3.96-3.19c0.88-2.6,5.15-6.25,0.17-10.71c0,0-1.72-1.98,1.16-3.51
			c0,0-2.66,2.67,1.45,4.07c4.11,1.4,3.85,5,2.54,7.84c-1.31,2.84-3.65,4.39,4.11,5.31l-4.88,1.75l-0.7,0.25L70.79,67.18z"/>
		<path class="st2" d="M67.06,55.33c0,0,2.54,2.52-0.11,4.95C66.95,60.28,68.75,58.24,67.06,55.33z"/>
		<path class="st3" d="M74.73,77.63c0.04,0.06,0.08,0.13,0.11,0.19c0.12,0.21,0.22,0.44,0.3,0.68c0.49,1.54,0.51,2.75,0.25,3.44
			c-0.07,0.16-0.16,0.31-0.27,0.45c-0.02,0.02-0.03,0.03-0.04,0.05c-0.29,0.36-0.68,0.64-1.11,0.86c0.01-0.02,0.03-0.04,0.04-0.07
			c-0.02,0.02-0.03,0.05-0.05,0.07c-0.8,0.4-1.76,0.55-2.53,0.52c-0.53-0.02-1.07-0.02-1.6,0c-1.51,0.07-3.72-0.6-4.13-2.35
			c0-0.01,0-0.02,0-0.02c-0.29-1.23-0.43-2.49-0.43-3.76v-7.83c0.08-0.09,0.18-0.19,0.3-0.28h9.87c0.03,0.03,0.05,0.07,0.07,0.1v0
			c0,0.32-0.24,0.87-0.67,1.38c-0.04,0.05-0.07,0.09-0.11,0.14c-0.5,0.53-1.2,0.99-2.04,1.03c-1.19,0.05,0.67,0.05,2.04,0.39
			c0.04,0.01,0.07,0.02,0.11,0.03c0.55,0.15,0.99,0.35,1.1,0.64l0,0c0.01,0.17,0.02,0.32,0.02,0.49c-0.09,0.51-0.55,1.06-1.12,1.42
			c-0.04,0.02-0.07,0.05-0.11,0.07c-0.47,0.27-1.01,0.42-1.46,0.31C72.23,75.33,73.83,76.18,74.73,77.63L74.73,77.63z M80.33,68.19
			l0.3-1.95H59.37l0.3,1.95c0.07,0.42,0.29,0.79,0.61,1.03v0.72c-0.34,1.4-0.46,2.9-0.46,4.33c0,3.86,0.91,7.68,2.56,11.18
			c1.86,3.94,3.62,4.78,7.61,4.78c4.11,0,5.92-0.87,7.84-4.93c1.7-3.6,2.64-7.54,2.64-11.52c0-1.56-0.14-3.22-0.55-4.75
			C80.13,68.81,80.28,68.52,80.33,68.19L80.33,68.19z"/>
	</g>
</g>
</svg>
